<svg width="300" height="300" xmlns="http://www.w3.org/2000/svg">

 <g>
  <title>background</title>
  <rect fill="none" id="canvas_background" height="402" width="582" y="-1" x="-1"/>
 </g>
 <g>
  <title>Layer 1</title>
  <path id="svg_2" fill="#6A8A4B" d="m150.841,15.398c-74.56,0 -134.998,60.438 -134.998,134.999c0,74.558 60.438,135.001 134.998,135.001c74.563,0 135.002,-60.443 135.002,-135.001c0.001,-74.561 -60.439,-134.999 -135.002,-134.999zm0,250.915c-64.016,0 -115.91,-51.905 -115.91,-115.915c0,-64.017 51.894,-115.908 115.91,-115.908c64.02,0 115.912,51.891 115.912,115.908c0,64.009 -51.892,115.915 -115.912,115.915z"/>
  <path id="svg_3" fill="#6A8A4B" d="m255.267,150.397c0,57.681 -46.746,104.429 -104.421,104.429c-57.677,0 -104.428,-46.748 -104.428,-104.429c0,-57.674 46.75,-104.426 104.428,-104.426c57.675,0.001 104.421,46.752 104.421,104.426z"/>
  <polygon id="svg_4" points="195.498,146.455 195.498,197.747 175.782,197.747 175.782,169.553 153.288,169.553    153.288,197.747 108.143,197.747 108.143,146.455 93.146,146.455 151.819,103.052 208.541,146.455  " fill="#FFFFFF"/>
 </g>
</svg>